/* XPM */
static char * close_prelight_xpm[] = {
"29 28 5 1",
" 	c None",
".	c #123456	s	active_shadow_1",
"+	c #ABCDEF s active_hilight_1",
"@	c #000000	s	active_text_color",
"#	c #FFFFFF s active_mid_1",
".............................",
"+++++++++++++++++++++++++++++",
"+++++++++++++++++++++++++++++",
"+++++++++++++++++++++++++++++",
"+++++++++++++++++++++++++++++",
"+++++++++++++++++++++++++++++",
"+++++++++++++++++++++++++++++",
"+++++++++++++++++++++++++++++",
"+++++++++@+++++++++@+++++++++",
"++++++++@@@+++++++@@@++++++++",
"+++++++++@@@+++++@@@+++++++++",
"++++++++++@@@+++@@@++++++++++",
"+++++++++++@@@+@@@+++++++++++",
"++++++++++++@@@@@++++++++++++",
"+++++++++++++@@@+++++++++++++",
"++++++++++++@@@@@++++++++++++",
"+++++++++++@@@+@@@+++++++++++",
"++++++++++@@@+++@@@++++++++++",
"+++++++++@@@+++++@@@+++++++++",
"++++++++@@@+++++++@@@++++++++",
"+++++++++@+++++++++@+++++++++",
"+++++++++++++++++++++++++++++",
"+++++++++++++++++++++++++++++",
"+++++++++++++++++++++++++++++",
"+++++++++++++++++++++++++++++",
"+++++++++++++++++++++++++++++",
"+++++++++++++++++++++++++++++",
"#############################"};
