/* XPM */
static char * left_active_xpm[] = {
"10 10 4 1",
" 	c None",
".	c #7A7A80	s	active_shadow_1",
"+	c #B7B7BF	s	active_color_1",
"@	c #A1A1A8	s	active_mid_1",
".++++++++@",
".++++++++@",
".++++++++@",
".++++++++@",
".++++++++@",
".++++++++@",
".++++++++@",
".++++++++@",
".++++++++@",
".++++++++@"};
