/* XPM */
static char * maximize_toggled_pressed_xpm[] = {
"29 28 4 1",
" 	c None",
".	c #123456	s	active_shadow_1",
"+	c #000000	s	active_text_color",
"@	c #FFFFFF s active_mid_1",
".............................",
".............................",
".............................",
".............................",
".............................",
".............................",
".............................",
".............................",
"...........++++++++++........",
"...........++++++++++........",
"...........++++++++++........",
"...................++........",
"........++++++++++.++........",
"........++++++++++.++........",
"........++++++++++.++........",
"........++......++.++........",
"........++......++.++........",
"........++......++...........",
"........++......++...........",
"........++++++++++...........",
"........++++++++++...........",
".............................",
".............................",
".............................",
".............................",
".............................",
".............................",
"@@@@@@@@@@@@@@@@@@@@@@@@@@@@@"};
