/* XPM */
static char * menu_inactive_xpm[] = {
"24 28 2 1",
".	c #ABCDEF	s	inactive_color_1",
"^	c #123456	s	inactive_shadow_1",
"^^^^^^^^^^^^^^^^^^^^^^^^",
"........................",
"........................",
"........................",
"........................",
"........................",
"........................",
"........................",
"........................",
"........................",
"........................",
"........................",
"........................",
"........................",
"........................",
"........................",
"........................",
"........................",
"........................",
"........................",
"........................",
"........................",
"........................",
"........................",
"........................",
"........................",
"........................",
"........................"};
