/* XPM */
static char * menu_pressed_xpm[] = {
"24 28 3 1",
" 	c None",
".	c #123456	s	active_shadow_1",
"+	c #FFFFFF	s	active_mid_1",
"........................",
"........................",
"........................",
"........................",
"........................",
"........................",
"........................",
"........................",
"........................",
"........................",
"........................",
"........................",
"........................",
"........................",
"........................",
"........................",
"........................",
"........................",
"........................",
"........................",
"........................",
"........................",
"........................",
"........................",
"........................",
"........................",
"........................",
"++++++++++++++++++++++++"};
