/* XPM */
static char * menu_active_xpm[] = {
"24 28 2 1",
".	c #ABCDEF	s	active_color_1",
"^	c #123456	s	active_shadow_1",
"^^^^^^^^^^^^^^^^^^^^^^^^",
"........................",
"........................",
"........................",
"........................",
"........................",
"........................",
"........................",
"........................",
"........................",
"........................",
"........................",
"........................",
"........................",
"........................",
"........................",
"........................",
"........................",
"........................",
"........................",
"........................",
"........................",
"........................",
"........................",
"........................",
"........................",
"........................",
"........................"};
