/* XPM */
static char * right_active_xpm[] = {
"10 10 4 1",
" 	c None",
".	c #FFFFFF	s	active_mid_1",
"+	c #ABCDEF	s	active_color_1",
"@	c #123456	s	active_shadow_1",
".++++++++@",
".++++++++@",
".++++++++@",
".++++++++@",
".++++++++@",
".++++++++@",
".++++++++@",
".++++++++@",
".++++++++@",
".++++++++@"};
