/* XPM */
static char * shade_toggled_inactive_xpm[] = {
"29 28 5 1",
" 	c None",
".	c #123456	s	inactive_shadow_1",
"+	c #ABCDEF	s	inactive_color_1",
"@	c #000000	s	inactive_text_color",
"#	c #FFFFFF	s	inactive_mid_1",
".............................",
"+++++++++++++++++++++++++++++",
"+++++++++++++++++++++++++++++",
"+++++++++++++++++++++++++++++",
"+++++++++++++++++++++++++++++",
"+++++++++++++++++++++++++++++",
"+++++++++++++++++++++++++++++",
"+++++++++++++++++++++++++++++",
"+++++++++++++++++++++++++++++",
"+++++++++++++++++++++++++++++",
"++++++++++@+++++++@++++++++++",
"+++++++++@@@+++++@@@+++++++++",
"++++++++++@@@+++@@@++++++++++",
"+++++++++++@@@+@@@+++++++++++",
"++++++++++++@@@@@++++++++++++",
"+++++++++++++@@@+++++++++++++",
"++++++++++++++@++++++++++++++",
"+++++++++++++++++++++++++++++",
"+++++++++++++++++++++++++++++",
"+++++++++++++++++++++++++++++",
"+++++++++++++++++++++++++++++",
"+++++++++++++++++++++++++++++",
"+++++++++++++++++++++++++++++",
"+++++++++++++++++++++++++++++",
"+++++++++++++++++++++++++++++",
"+++++++++++++++++++++++++++++",
"+++++++++++++++++++++++++++++",
"#############################"};
