/* XPM */
static char * title_5_active_xpm[] = {
"6 28 4 1",
" 	c None",
".	c #123456	s	active_shadow_1",
"+	c #ABCDEF s active_color_1",
"@	c #FFFFFF s active_mid_1",
"......",
"++++++",
"++++++",
"++++++",
"++++++",
"++++++",
"++++++",
"++++++",
"++++++",
"++++++",
"++++++",
"++++++",
"++++++",
"++++++",
"++++++",
"++++++",
"++++++",
"++++++",
"++++++",
"++++++",
"++++++",
"++++++",
"++++++",
"++++++",
"++++++",
"++++++",
"++++++",
"@@@@@@"};
