/* XPM */
static char * top_right_inactive_xpm[] = {
"10 28 4 1",
" 	c None",
".	c #123456	s	inactive_shadow_1",
"+	c #ABCDEF	s	inactive_color_1",
"@	c #FFFFFF	s	inactive_mid_1",
"..........",
"+++++++++.",
"+++++++++.",
"+++++++++.",
"+++++++++.",
"+++++++++.",
"+++++++++.",
"+++++++++.",
"+++++++++.",
"+++++++++.",
"+++++++++.",
"+++++++++.",
"+++++++++.",
"+++++++++.",
"+++++++++.",
"+++++++++.",
"+++++++++.",
"+++++++++.",
"+++++++++.",
"+++++++++.",
"+++++++++.",
"+++++++++.",
"+++++++++.",
"+++++++++.",
"+++++++++.",
"+++++++++.",
"+++++++++.",
"@++++++++."};
